<svg width="207" height="56" viewBox="0 0 207 56" fill="none" xmlns="http://www.w3.org/2000/svg">
<path d="M0 56C0 29.4903 21.4903 8 48 8H170C183.255 8 194 18.7452 194 32C194 45.2548 183.255 56 170 56H0Z" fill="white"/>
<path d="M13.5026 47.5C13.7707 21.4968 34.9333 0.5 61 0.5H183C195.979 0.5 206.5 11.0213 206.5 24C206.5 36.9787 195.979 47.5 183 47.5H13.5026Z" stroke="black"/>
<path d="M37.048 40.168C36.76 40.168 36.536 40.088 36.376 39.928C36.216 39.752 36.136 39.512 36.136 39.208V23.872C36.136 23.552 36.216 23.312 36.376 23.152C36.536 22.992 36.76 22.912 37.048 22.912C37.304 22.912 37.504 22.968 37.648 23.08C37.808 23.176 37.952 23.344 38.08 23.584L44.656 35.968H43.936L50.488 23.584C50.616 23.344 50.752 23.176 50.896 23.08C51.04 22.968 51.248 22.912 51.52 22.912C51.792 22.912 52.008 22.992 52.168 23.152C52.328 23.312 52.408 23.552 52.408 23.872V39.208C52.408 39.512 52.328 39.752 52.168 39.928C52.024 40.088 51.8 40.168 51.496 40.168C51.208 40.168 50.984 40.088 50.824 39.928C50.664 39.752 50.584 39.512 50.584 39.208V25.72H51.16L45.16 36.976C45.048 37.184 44.928 37.336 44.8 37.432C44.688 37.512 44.52 37.552 44.296 37.552C44.072 37.552 43.896 37.504 43.768 37.408C43.64 37.312 43.528 37.168 43.432 36.976L37.36 25.696H37.936V39.208C37.936 39.512 37.856 39.752 37.696 39.928C37.552 40.088 37.336 40.168 37.048 40.168ZM62.0912 40.216C60.8592 40.216 59.7952 39.976 58.8992 39.496C58.0192 39 57.3312 38.304 56.8352 37.408C56.3552 36.512 56.1152 35.44 56.1152 34.192C56.1152 32.976 56.3552 31.92 56.8352 31.024C57.3152 30.112 57.9712 29.4 58.8032 28.888C59.6512 28.376 60.6272 28.12 61.7312 28.12C62.5152 28.12 63.2193 28.256 63.8433 28.528C64.4672 28.784 64.9952 29.16 65.4272 29.656C65.8752 30.152 66.2112 30.752 66.4352 31.456C66.6753 32.16 66.7953 32.952 66.7953 33.832C66.7953 34.088 66.7233 34.28 66.5793 34.408C66.4353 34.52 66.2273 34.576 65.9553 34.576H57.6032V33.304H65.4992L65.1153 33.616C65.1153 32.752 64.9873 32.024 64.7313 31.432C64.4753 30.824 64.0993 30.36 63.6032 30.04C63.1232 29.72 62.5152 29.56 61.7792 29.56C60.9632 29.56 60.2672 29.752 59.6912 30.136C59.1312 30.504 58.7072 31.024 58.4192 31.696C58.1312 32.352 57.9872 33.12 57.9872 34V34.144C57.9872 35.616 58.3392 36.736 59.0432 37.504C59.7632 38.272 60.7792 38.656 62.0912 38.656C62.6353 38.656 63.1713 38.584 63.6992 38.44C64.2433 38.296 64.7713 38.056 65.2833 37.72C65.5073 37.576 65.7073 37.512 65.8832 37.528C66.0753 37.528 66.2273 37.584 66.3393 37.696C66.4513 37.792 66.5233 37.92 66.5553 38.08C66.6033 38.224 66.5873 38.384 66.5073 38.56C66.4433 38.736 66.3073 38.888 66.0992 39.016C65.5712 39.4 64.9472 39.696 64.2272 39.904C63.5072 40.112 62.7952 40.216 62.0912 40.216ZM71.0727 40.168C70.7527 40.168 70.5047 40.08 70.3287 39.904C70.1687 39.728 70.0887 39.48 70.0887 39.16V29.152C70.0887 28.832 70.1687 28.592 70.3287 28.432C70.4887 28.256 70.7207 28.168 71.0247 28.168C71.3287 28.168 71.5607 28.256 71.7207 28.432C71.8967 28.592 71.9847 28.832 71.9847 29.152V31.096H71.7447C72.0007 30.152 72.4887 29.424 73.2087 28.912C73.9287 28.4 74.8167 28.128 75.8727 28.096C76.1127 28.08 76.3047 28.136 76.4487 28.264C76.5927 28.376 76.6727 28.576 76.6887 28.864C76.7047 29.136 76.6407 29.352 76.4967 29.512C76.3527 29.672 76.1287 29.768 75.8247 29.8L75.4407 29.848C74.3527 29.944 73.5127 30.296 72.9207 30.904C72.3447 31.496 72.0567 32.312 72.0567 33.352V39.16C72.0567 39.48 71.9687 39.728 71.7927 39.904C71.6327 40.08 71.3927 40.168 71.0727 40.168ZM80.1302 40.168C79.8102 40.168 79.5702 40.08 79.4102 39.904C79.2502 39.728 79.1702 39.48 79.1702 39.16V23.896C79.1702 23.576 79.2502 23.336 79.4102 23.176C79.5702 23 79.8102 22.912 80.1302 22.912C80.4342 22.912 80.6742 23 80.8502 23.176C81.0262 23.336 81.1142 23.576 81.1142 23.896V30.928H80.8022C81.1382 30 81.6822 29.304 82.4342 28.84C83.2022 28.36 84.0822 28.12 85.0742 28.12C86.0022 28.12 86.7702 28.288 87.3782 28.624C88.0022 28.96 88.4662 29.472 88.7702 30.16C89.0742 30.832 89.2262 31.688 89.2262 32.728V39.16C89.2262 39.48 89.1382 39.728 88.9622 39.904C88.8022 40.08 88.5702 40.168 88.2662 40.168C87.9462 40.168 87.6982 40.08 87.5222 39.904C87.3622 39.728 87.2822 39.48 87.2822 39.16V32.848C87.2822 31.76 87.0662 30.968 86.6342 30.472C86.2182 29.96 85.5462 29.704 84.6182 29.704C83.5462 29.704 82.6902 30.04 82.0502 30.712C81.4262 31.368 81.1142 32.248 81.1142 33.352V39.16C81.1142 39.832 80.7862 40.168 80.1302 40.168ZM96.9629 40.216C96.1629 40.216 95.4429 40.064 94.8029 39.76C94.1789 39.44 93.6829 39.008 93.3149 38.464C92.9469 37.92 92.7629 37.312 92.7629 36.64C92.7629 35.776 92.9789 35.096 93.4109 34.6C93.8589 34.104 94.5869 33.752 95.5949 33.544C96.6189 33.336 98.0109 33.232 99.7709 33.232H100.851V34.504H99.7949C98.4989 34.504 97.4749 34.568 96.7229 34.696C95.9869 34.808 95.4669 35.008 95.1629 35.296C94.8749 35.584 94.7309 35.992 94.7309 36.52C94.7309 37.176 94.9549 37.712 95.4029 38.128C95.8669 38.544 96.4909 38.752 97.2749 38.752C97.9149 38.752 98.4749 38.6 98.9549 38.296C99.4509 37.992 99.8349 37.576 100.107 37.048C100.395 36.52 100.539 35.912 100.539 35.224V32.488C100.539 31.496 100.339 30.784 99.9389 30.352C99.5389 29.904 98.8829 29.68 97.9709 29.68C97.4109 29.68 96.8509 29.752 96.2909 29.896C95.7309 30.04 95.1389 30.272 94.5149 30.592C94.2909 30.704 94.0989 30.744 93.9389 30.712C93.7789 30.664 93.6509 30.576 93.5549 30.448C93.4589 30.32 93.4029 30.176 93.3869 30.016C93.3709 29.84 93.4029 29.672 93.4829 29.512C93.5789 29.352 93.7229 29.224 93.9149 29.128C94.6189 28.776 95.3149 28.52 96.0029 28.36C96.6909 28.2 97.3469 28.12 97.9709 28.12C98.9789 28.12 99.8109 28.288 100.467 28.624C101.123 28.944 101.611 29.44 101.931 30.112C102.251 30.768 102.411 31.616 102.411 32.656V39.16C102.411 39.48 102.331 39.728 102.171 39.904C102.027 40.08 101.811 40.168 101.523 40.168C101.219 40.168 100.987 40.08 100.827 39.904C100.667 39.728 100.587 39.48 100.587 39.16V37.288H100.803C100.675 37.896 100.427 38.416 100.059 38.848C99.7069 39.28 99.2669 39.616 98.7389 39.856C98.2109 40.096 97.6189 40.216 96.9629 40.216ZM112.401 40.216C111.345 40.216 110.433 39.944 109.665 39.4C108.913 38.856 108.409 38.128 108.153 37.216L108.417 36.952V39.16C108.417 39.48 108.329 39.728 108.153 39.904C107.993 40.08 107.761 40.168 107.457 40.168C107.137 40.168 106.897 40.08 106.737 39.904C106.577 39.728 106.497 39.48 106.497 39.16V23.896C106.497 23.576 106.577 23.336 106.737 23.176C106.897 23 107.137 22.912 107.457 22.912C107.761 22.912 108.001 23 108.177 23.176C108.353 23.336 108.441 23.576 108.441 23.896V31.048H108.153C108.425 30.152 108.937 29.44 109.689 28.912C110.441 28.384 111.345 28.12 112.401 28.12C113.457 28.12 114.369 28.368 115.137 28.864C115.905 29.344 116.497 30.04 116.913 30.952C117.345 31.848 117.561 32.92 117.561 34.168C117.561 35.4 117.345 36.472 116.913 37.384C116.497 38.28 115.897 38.976 115.113 39.472C114.345 39.968 113.441 40.216 112.401 40.216ZM111.993 38.656C112.729 38.656 113.361 38.48 113.889 38.128C114.433 37.776 114.849 37.264 115.137 36.592C115.441 35.92 115.593 35.112 115.593 34.168C115.593 32.712 115.265 31.6 114.609 30.832C113.969 30.064 113.097 29.68 111.993 29.68C111.273 29.68 110.641 29.856 110.097 30.208C109.553 30.544 109.129 31.048 108.825 31.72C108.537 32.376 108.393 33.192 108.393 34.168C108.393 35.608 108.721 36.72 109.377 37.504C110.033 38.272 110.905 38.656 111.993 38.656ZM124.642 40.216C123.842 40.216 123.122 40.064 122.482 39.76C121.858 39.44 121.362 39.008 120.994 38.464C120.626 37.92 120.442 37.312 120.442 36.64C120.442 35.776 120.658 35.096 121.09 34.6C121.538 34.104 122.266 33.752 123.274 33.544C124.298 33.336 125.69 33.232 127.45 33.232H128.53V34.504H127.474C126.178 34.504 125.154 34.568 124.402 34.696C123.666 34.808 123.146 35.008 122.842 35.296C122.554 35.584 122.41 35.992 122.41 36.52C122.41 37.176 122.634 37.712 123.082 38.128C123.546 38.544 124.17 38.752 124.954 38.752C125.594 38.752 126.154 38.6 126.634 38.296C127.13 37.992 127.514 37.576 127.786 37.048C128.074 36.52 128.218 35.912 128.218 35.224V32.488C128.218 31.496 128.018 30.784 127.618 30.352C127.218 29.904 126.562 29.68 125.65 29.68C125.09 29.68 124.53 29.752 123.97 29.896C123.41 30.04 122.818 30.272 122.194 30.592C121.97 30.704 121.778 30.744 121.618 30.712C121.458 30.664 121.33 30.576 121.234 30.448C121.138 30.32 121.082 30.176 121.066 30.016C121.05 29.84 121.082 29.672 121.162 29.512C121.258 29.352 121.402 29.224 121.594 29.128C122.298 28.776 122.994 28.52 123.682 28.36C124.37 28.2 125.026 28.12 125.65 28.12C126.658 28.12 127.49 28.288 128.146 28.624C128.802 28.944 129.29 29.44 129.61 30.112C129.93 30.768 130.09 31.616 130.09 32.656V39.16C130.09 39.48 130.01 39.728 129.85 39.904C129.706 40.08 129.49 40.168 129.202 40.168C128.898 40.168 128.666 40.08 128.506 39.904C128.346 39.728 128.266 39.48 128.266 39.16V37.288H128.482C128.354 37.896 128.106 38.416 127.738 38.848C127.386 39.28 126.946 39.616 126.418 39.856C125.89 40.096 125.298 40.216 124.642 40.216ZM141.78 40.096C141.38 40.096 141.06 39.976 140.82 39.736C140.58 39.48 140.46 39.16 140.46 38.776C140.46 38.392 140.58 38.08 140.82 37.84C141.06 37.584 141.38 37.456 141.78 37.456C142.18 37.456 142.492 37.584 142.716 37.84C142.956 38.08 143.076 38.392 143.076 38.776C143.076 39.16 142.956 39.48 142.716 39.736C142.492 39.976 142.18 40.096 141.78 40.096ZM141.78 30.88C141.38 30.88 141.06 30.752 140.82 30.496C140.58 30.24 140.46 29.928 140.46 29.56C140.46 29.16 140.58 28.84 140.82 28.6C141.06 28.36 141.38 28.24 141.78 28.24C142.18 28.24 142.492 28.36 142.716 28.6C142.956 28.84 143.076 29.16 143.076 29.56C143.076 29.928 142.956 30.24 142.716 30.496C142.492 30.752 142.18 30.88 141.78 30.88ZM147.553 44.056C147.425 44.264 147.265 44.392 147.073 44.44C146.881 44.488 146.689 44.472 146.497 44.392C146.305 44.312 146.169 44.176 146.089 43.984C146.009 43.792 146.025 43.544 146.137 43.24C146.569 42.168 146.921 41.104 147.193 40.048C147.481 39.008 147.697 37.96 147.841 36.904C147.985 35.848 148.057 34.776 148.057 33.688C148.057 32.6 147.977 31.528 147.817 30.472C147.673 29.416 147.457 28.368 147.169 27.328C146.897 26.272 146.553 25.208 146.137 24.136C146.025 23.832 146.009 23.584 146.089 23.392C146.185 23.184 146.321 23.048 146.497 22.984C146.673 22.904 146.857 22.888 147.049 22.936C147.257 22.984 147.425 23.112 147.553 23.32C148.433 24.952 149.081 26.64 149.497 28.384C149.913 30.128 150.121 31.896 150.121 33.688C150.121 34.888 150.025 36.08 149.833 37.264C149.657 38.432 149.377 39.584 148.993 40.72C148.625 41.856 148.145 42.968 147.553 44.056Z" fill="black"/>
</svg>
